<?xml version="1.0" encoding="iso-8859-1"?>
<!-- Generator: Adobe Illustrator 19.0.0, SVG Export Plug-In . SVG Version: 6.00 Build 0)  -->
<svg version="1.1" id="Capa_1" xmlns="http://www.w3.org/2000/svg" xmlns:xlink="http://www.w3.org/1999/xlink" x="0px" y="0px"
	 viewBox="0 0 463 463" style="enable-background:new 0 0 463 463;" xml:space="preserve">
<g>
	<path d="M399.5,0h-336C32.897,0,8,24.897,8,55.5v352C8,438.103,32.897,463,63.5,463h336c30.603,0,55.5-24.897,55.5-55.5v-352
		C455,24.897,430.103,0,399.5,0z M440,407.5c0,22.332-18.168,40.5-40.5,40.5h-336C41.168,448,23,429.832,23,407.5v-352
		C23,33.168,41.168,15,63.5,15h336c22.332,0,40.5,18.168,40.5,40.5V407.5z"/>
	<path d="M135.5,312h-64C58.542,312,48,322.542,48,335.5v64c0,12.958,10.542,23.5,23.5,23.5h64c12.958,0,23.5-10.542,23.5-23.5v-64
		C159,322.542,148.458,312,135.5,312z M144,399.5c0,4.687-3.813,8.5-8.5,8.5h-64c-4.687,0-8.5-3.813-8.5-8.5v-64
		c0-4.687,3.813-8.5,8.5-8.5h64c4.687,0,8.5,3.813,8.5,8.5V399.5z"/>
	<path d="M135.5,184h-64C58.542,184,48,194.542,48,207.5v64c0,12.958,10.542,23.5,23.5,23.5h64c12.958,0,23.5-10.542,23.5-23.5v-64
		C159,194.542,148.458,184,135.5,184z M144,271.5c0,4.687-3.813,8.5-8.5,8.5h-64c-4.687,0-8.5-3.813-8.5-8.5v-64
		c0-4.687,3.813-8.5,8.5-8.5h64c4.687,0,8.5,3.813,8.5,8.5V271.5z"/>
	<path d="M263.5,312h-64c-12.958,0-23.5,10.542-23.5,23.5v64c0,12.958,10.542,23.5,23.5,23.5h64c12.958,0,23.5-10.542,23.5-23.5v-64
		C287,322.542,276.458,312,263.5,312z M272,399.5c0,4.687-3.813,8.5-8.5,8.5h-64c-4.687,0-8.5-3.813-8.5-8.5v-64
		c0-4.687,3.813-8.5,8.5-8.5h64c4.687,0,8.5,3.813,8.5,8.5V399.5z"/>
	<path d="M263.5,184h-64c-12.958,0-23.5,10.542-23.5,23.5v64c0,12.958,10.542,23.5,23.5,23.5h64c12.958,0,23.5-10.542,23.5-23.5v-64
		C287,194.542,276.458,184,263.5,184z M272,271.5c0,4.687-3.813,8.5-8.5,8.5h-64c-4.687,0-8.5-3.813-8.5-8.5v-64
		c0-4.687,3.813-8.5,8.5-8.5h64c4.687,0,8.5,3.813,8.5,8.5V271.5z"/>
	<path d="M391.5,184h-64c-12.958,0-23.5,10.542-23.5,23.5v192c0,12.958,10.542,23.5,23.5,23.5h64c12.958,0,23.5-10.542,23.5-23.5
		v-192C415,194.542,404.458,184,391.5,184z M400,399.5c0,4.687-3.813,8.5-8.5,8.5h-64c-4.687,0-8.5-3.813-8.5-8.5v-192
		c0-4.687,3.813-8.5,8.5-8.5h64c4.687,0,8.5,3.813,8.5,8.5V399.5z"/>
	<path d="M391.5,40h-320C58.542,40,48,50.542,48,63.5v80c0,12.958,10.542,23.5,23.5,23.5h320c12.958,0,23.5-10.542,23.5-23.5v-80
		C415,50.542,404.458,40,391.5,40z M400,143.5c0,4.687-3.813,8.5-8.5,8.5h-320c-4.687,0-8.5-3.813-8.5-8.5v-80
		c0-4.687,3.813-8.5,8.5-8.5h320c4.687,0,8.5,3.813,8.5,8.5V143.5z"/>
	<path d="M119.5,232H111v-8.5c0-4.142-3.358-7.5-7.5-7.5s-7.5,3.358-7.5,7.5v8.5h-8.5c-4.142,0-7.5,3.358-7.5,7.5s3.358,7.5,7.5,7.5
		H96v8.5c0,4.142,3.358,7.5,7.5,7.5s7.5-3.358,7.5-7.5V247h8.5c4.142,0,7.5-3.358,7.5-7.5S123.642,232,119.5,232z"/>
	<path d="M247.5,232h-32c-4.142,0-7.5,3.358-7.5,7.5s3.358,7.5,7.5,7.5h32c4.142,0,7.5-3.358,7.5-7.5S251.642,232,247.5,232z"/>
	<path d="M247.5,360h-32c-4.142,0-7.5,3.358-7.5,7.5s3.358,7.5,7.5,7.5h32c4.142,0,7.5-3.358,7.5-7.5S251.642,360,247.5,360z"/>
	<path d="M231.5,351c1.97,0,3.91-0.8,5.3-2.2c1.4-1.39,2.2-3.33,2.2-5.3c0-1.97-0.8-3.91-2.2-5.3c-1.39-1.4-3.33-2.2-5.3-2.2
		c-1.97,0-3.91,0.8-5.3,2.2c-1.4,1.39-2.2,3.32-2.2,5.3s0.8,3.91,2.2,5.3C227.59,350.2,229.53,351,231.5,351z"/>
	<path d="M231.5,384c-1.97,0-3.91,0.8-5.3,2.2c-1.4,1.39-2.2,3.33-2.2,5.3c0,1.97,0.8,3.91,2.2,5.3c1.39,1.4,3.33,2.2,5.3,2.2
		c1.98,0,3.91-0.8,5.3-2.2c1.4-1.4,2.2-3.33,2.2-5.3c0-1.97-0.8-3.91-2.2-5.3C235.41,384.8,233.48,384,231.5,384z"/>
	<path d="M375.5,312h-32c-4.142,0-7.5,3.358-7.5,7.5s3.358,7.5,7.5,7.5h32c4.142,0,7.5-3.358,7.5-7.5S379.642,312,375.5,312z"/>
	<path d="M375.5,280h-32c-4.142,0-7.5,3.358-7.5,7.5s3.358,7.5,7.5,7.5h32c4.142,0,7.5-3.358,7.5-7.5S379.642,280,375.5,280z"/>
	<path d="M124.803,346.197c-2.929-2.929-7.678-2.929-10.606,0L103.5,356.894l-10.697-10.697c-2.929-2.929-7.678-2.929-10.606,0
		c-2.929,2.929-2.929,7.678,0,10.606L92.894,367.5l-10.697,10.697c-2.929,2.929-2.929,7.678,0,10.606
		C83.661,390.268,85.581,391,87.5,391s3.839-0.732,5.303-2.197l10.697-10.697l10.697,10.697c1.464,1.464,3.384,2.197,5.303,2.197
		s3.839-0.732,5.303-2.197c2.929-2.929,2.929-7.678,0-10.606L114.106,367.5l10.697-10.697
		C127.732,353.875,127.732,349.125,124.803,346.197z"/>
</g>
<g>
</g>
<g>
</g>
<g>
</g>
<g>
</g>
<g>
</g>
<g>
</g>
<g>
</g>
<g>
</g>
<g>
</g>
<g>
</g>
<g>
</g>
<g>
</g>
<g>
</g>
<g>
</g>
<g>
</g>
</svg>
